<mxfile host="app.diagrams.net" modified="2020-12-11T06:52:53.595Z" agent="5.0 (Macintosh; Intel Mac OS X 10_15_6) AppleWebKit/605.1.15 (KHTML, like Gecko) Version/13.1.2 Safari/605.1.15" etag="mxPifuurGVz_t6fQsD2R" version="14.0.0" type="github">
  <diagram id="_YK4oUd5PnzccBMLxC9j" name="Page-1">
    <mxGraphModel dx="946" dy="662" grid="1" gridSize="10" guides="1" tooltips="1" connect="1" arrows="1" fold="1" page="1" pageScale="1" pageWidth="827" pageHeight="1169" math="0" shadow="0">
      <root>
        <mxCell id="0" />
        <mxCell id="1" parent="0" />
        <mxCell id="4XqWdwas44wuwkIx11D6-9" value="专有名词" style="rounded=0;whiteSpace=wrap;html=1;" vertex="1" parent="1">
          <mxGeometry x="260" y="150" width="80" height="30" as="geometry" />
        </mxCell>
        <mxCell id="4XqWdwas44wuwkIx11D6-10" value="口语化表述" style="rounded=0;whiteSpace=wrap;html=1;" vertex="1" parent="1">
          <mxGeometry x="360" y="150" width="80" height="30" as="geometry" />
        </mxCell>
        <mxCell id="4XqWdwas44wuwkIx11D6-11" value="干扰记录" style="rounded=0;whiteSpace=wrap;html=1;" vertex="1" parent="1">
          <mxGeometry x="460" y="150" width="80" height="30" as="geometry" />
        </mxCell>
        <mxCell id="4XqWdwas44wuwkIx11D6-12" value="标注成本高" style="rounded=0;whiteSpace=wrap;html=1;" vertex="1" parent="1">
          <mxGeometry x="560" y="150" width="80" height="30" as="geometry" />
        </mxCell>
        <mxCell id="4XqWdwas44wuwkIx11D6-13" value="短文本" style="rounded=0;whiteSpace=wrap;html=1;" vertex="1" parent="1">
          <mxGeometry x="260" y="100" width="80" height="30" as="geometry" />
        </mxCell>
        <mxCell id="4XqWdwas44wuwkIx11D6-14" value="关键词清晰" style="rounded=0;whiteSpace=wrap;html=1;" vertex="1" parent="1">
          <mxGeometry x="360" y="100" width="80" height="30" as="geometry" />
        </mxCell>
        <mxCell id="4XqWdwas44wuwkIx11D6-19" value="专有名词" style="rounded=0;whiteSpace=wrap;html=1;fillColor=#f0a30a;strokeColor=#BD7000;fontColor=#ffffff;" vertex="1" parent="1">
          <mxGeometry x="260" y="300" width="80" height="30" as="geometry" />
        </mxCell>
        <mxCell id="4XqWdwas44wuwkIx11D6-20" value="口语化表述" style="rounded=0;whiteSpace=wrap;html=1;fillColor=#f0a30a;strokeColor=#BD7000;fontColor=#ffffff;" vertex="1" parent="1">
          <mxGeometry x="360" y="300" width="80" height="30" as="geometry" />
        </mxCell>
        <mxCell id="4XqWdwas44wuwkIx11D6-21" value="干扰记录" style="rounded=0;whiteSpace=wrap;html=1;fillColor=#f0a30a;strokeColor=#BD7000;fontColor=#ffffff;" vertex="1" parent="1">
          <mxGeometry x="460" y="300" width="80" height="30" as="geometry" />
        </mxCell>
        <mxCell id="4XqWdwas44wuwkIx11D6-22" value="标注成本高" style="rounded=0;whiteSpace=wrap;html=1;fillColor=#f0a30a;strokeColor=#BD7000;fontColor=#ffffff;" vertex="1" parent="1">
          <mxGeometry x="560" y="300" width="80" height="30" as="geometry" />
        </mxCell>
        <mxCell id="4XqWdwas44wuwkIx11D6-23" value="短文本" style="rounded=0;whiteSpace=wrap;html=1;fillColor=#1ba1e2;strokeColor=#006EAF;fontColor=#ffffff;" vertex="1" parent="1">
          <mxGeometry x="260" y="250" width="80" height="30" as="geometry" />
        </mxCell>
        <mxCell id="4XqWdwas44wuwkIx11D6-24" value="关键词清晰" style="rounded=0;whiteSpace=wrap;html=1;fillColor=#1ba1e2;strokeColor=#006EAF;fontColor=#ffffff;" vertex="1" parent="1">
          <mxGeometry x="360" y="250" width="80" height="30" as="geometry" />
        </mxCell>
        <mxCell id="4XqWdwas44wuwkIx11D6-25" value="专有名词" style="rounded=0;whiteSpace=wrap;html=1;fillColor=#fff2cc;strokeColor=#d6b656;gradientColor=#ffd966;" vertex="1" parent="1">
          <mxGeometry x="260" y="420" width="80" height="30" as="geometry" />
        </mxCell>
        <mxCell id="4XqWdwas44wuwkIx11D6-26" value="口语化表述" style="rounded=0;whiteSpace=wrap;html=1;fillColor=#fff2cc;strokeColor=#d6b656;gradientColor=#ffd966;" vertex="1" parent="1">
          <mxGeometry x="360" y="420" width="80" height="30" as="geometry" />
        </mxCell>
        <mxCell id="4XqWdwas44wuwkIx11D6-27" value="干扰记录" style="rounded=0;whiteSpace=wrap;html=1;fillColor=#fff2cc;strokeColor=#d6b656;gradientColor=#ffd966;" vertex="1" parent="1">
          <mxGeometry x="460" y="420" width="80" height="30" as="geometry" />
        </mxCell>
        <mxCell id="4XqWdwas44wuwkIx11D6-28" value="标注成本高" style="rounded=0;whiteSpace=wrap;html=1;fillColor=#fff2cc;strokeColor=#d6b656;gradientColor=#ffd966;" vertex="1" parent="1">
          <mxGeometry x="560" y="420" width="80" height="30" as="geometry" />
        </mxCell>
        <mxCell id="4XqWdwas44wuwkIx11D6-29" value="短文本" style="rounded=0;whiteSpace=wrap;html=1;fillColor=#dae8fc;strokeColor=#6c8ebf;gradientColor=#7ea6e0;" vertex="1" parent="1">
          <mxGeometry x="260" y="370" width="80" height="30" as="geometry" />
        </mxCell>
        <mxCell id="4XqWdwas44wuwkIx11D6-30" value="关键词清晰" style="rounded=0;whiteSpace=wrap;html=1;fillColor=#dae8fc;strokeColor=#6c8ebf;gradientColor=#7ea6e0;" vertex="1" parent="1">
          <mxGeometry x="360" y="370" width="80" height="30" as="geometry" />
        </mxCell>
        <mxCell id="4XqWdwas44wuwkIx11D6-72" value="&lt;font style=&quot;font-size: 10px&quot;&gt;标注成本高&lt;/font&gt;" style="rounded=0;whiteSpace=wrap;html=1;fillColor=#fff2cc;strokeColor=#d6b656;gradientColor=#ffd966;" vertex="1" parent="1">
          <mxGeometry x="367" y="594" width="80" height="20" as="geometry" />
        </mxCell>
        <mxCell id="4XqWdwas44wuwkIx11D6-73" value="&lt;font style=&quot;font-size: 10px&quot;&gt;专有名词&lt;/font&gt;" style="rounded=0;whiteSpace=wrap;html=1;fillColor=#fff2cc;strokeColor=#d6b656;gradientColor=#ffd966;" vertex="1" parent="1">
          <mxGeometry x="270" y="552" width="80" height="20" as="geometry" />
        </mxCell>
        <mxCell id="4XqWdwas44wuwkIx11D6-74" value="&lt;font style=&quot;font-size: 10px&quot;&gt;口语化表述&lt;/font&gt;" style="rounded=0;whiteSpace=wrap;html=1;fillColor=#fff2cc;strokeColor=#d6b656;gradientColor=#ffd966;" vertex="1" parent="1">
          <mxGeometry x="367" y="552" width="80" height="20" as="geometry" />
        </mxCell>
        <mxCell id="4XqWdwas44wuwkIx11D6-75" value="&lt;font style=&quot;font-size: 10px&quot;&gt;干扰记录&lt;/font&gt;" style="rounded=0;whiteSpace=wrap;html=1;fillColor=#fff2cc;strokeColor=#d6b656;gradientColor=#ffd966;" vertex="1" parent="1">
          <mxGeometry x="270" y="594" width="80" height="20" as="geometry" />
        </mxCell>
        <mxCell id="4XqWdwas44wuwkIx11D6-76" value="&lt;font style=&quot;font-size: 10px&quot;&gt;短文本&lt;/font&gt;" style="rounded=0;whiteSpace=wrap;html=1;fillColor=#dae8fc;strokeColor=#6c8ebf;gradientColor=#7ea6e0;" vertex="1" parent="1">
          <mxGeometry x="270" y="510" width="80" height="20" as="geometry" />
        </mxCell>
        <mxCell id="4XqWdwas44wuwkIx11D6-77" value="&lt;font style=&quot;font-size: 10px&quot;&gt;关键词清晰&lt;/font&gt;" style="rounded=0;whiteSpace=wrap;html=1;fillColor=#dae8fc;strokeColor=#6c8ebf;gradientColor=#7ea6e0;" vertex="1" parent="1">
          <mxGeometry x="367" y="510" width="80" height="20" as="geometry" />
        </mxCell>
        <mxCell id="4XqWdwas44wuwkIx11D6-78" style="edgeStyle=orthogonalEdgeStyle;rounded=0;orthogonalLoop=1;jettySize=auto;html=1;exitX=0.5;exitY=1;exitDx=0;exitDy=0;" edge="1" parent="1" source="4XqWdwas44wuwkIx11D6-77" target="4XqWdwas44wuwkIx11D6-77">
          <mxGeometry relative="1" as="geometry" />
        </mxCell>
      </root>
    </mxGraphModel>
  </diagram>
</mxfile>
